<?xml version="1.0" encoding="utf-8"?>
<!-- Generator: Adobe Illustrator 16.0.4, SVG Export Plug-In . SVG Version: 6.00 Build 0)  -->
<!DOCTYPE svg PUBLIC "-//W3C//DTD SVG 1.1//EN" "http://www.w3.org/Graphics/SVG/1.1/DTD/svg11.dtd">
<svg version="1.1" id="Layer_1" xmlns="http://www.w3.org/2000/svg" xmlns:xlink="http://www.w3.org/1999/xlink" x="0px" y="0px"
	 width="120px" height="120px" viewBox="0 0 120 120" enable-background="new 0 0 120 120" xml:space="preserve">
<g>
	<rect fill="#44678B" width="120" height="120"/>
	<g>
		<g>
			<path d="M60.1,56.1l26-23.7h7.6v63.8H76.8V63.6L60.1,78.8L43.3,63.6v32.7H26.5V32.5H34L60.1,56.1z"/>
		</g>
		<g opacity="0.5">
			<path d="M57.4,56.1l26-23.7h7.6v63.8H74.1V63.6L57.4,78.8L40.6,63.6v32.7H23.8V32.5h7.6L57.4,56.1z"/>
		</g>
		<g opacity="0.7">
			<path d="M60.1,56.1l26-23.7h7.6v63.8H76.8V63.6L60.1,78.8L43.3,63.6v32.7H26.5V32.5H34L60.1,56.1z"/>
		</g>
		<g>
			<path fill="#44678B" d="M57.4,56.2l26-23.7h7.6v63.8H74.1V63.6L57.4,78.8L40.6,63.7v32.7H23.8V32.5h7.6L57.4,56.2z"/>
		</g>
	</g>
</g>
</svg>
